<mxfile host="app.diagrams.net" modified="2022-07-31T15:34:49.889Z" agent="5.0 (X11; Linux x86_64) AppleWebKit/537.36 (KHTML, like Gecko) Chrome/103.0.5060.134 Safari/537.36" etag="jZFF9Qoc3B4l9rKIttGc" version="20.2.2" type="github">
  <diagram id="XZRmSv8jsnr1sw19fVzm" name="Page-1">
    <mxGraphModel dx="5217" dy="3089" grid="1" gridSize="10" guides="1" tooltips="1" connect="1" arrows="1" fold="1" page="1" pageScale="1" pageWidth="827" pageHeight="1169" math="0" shadow="0">
      <root>
        <mxCell id="0" />
        <mxCell id="1" parent="0" />
        <mxCell id="7ozsi6IX1OwcKB7GidZz-86" style="edgeStyle=orthogonalEdgeStyle;rounded=1;orthogonalLoop=1;jettySize=auto;html=1;startArrow=classic;startFill=1;entryX=0;entryY=0.5;entryDx=0;entryDy=0;exitX=0.098;exitY=1.004;exitDx=0;exitDy=0;exitPerimeter=0;" edge="1" parent="1" source="7ozsi6IX1OwcKB7GidZz-1" target="7ozsi6IX1OwcKB7GidZz-88">
          <mxGeometry relative="1" as="geometry">
            <mxPoint x="-979.9999999999995" y="790" as="targetPoint" />
          </mxGeometry>
        </mxCell>
        <UserObject label="Frontend" id="7ozsi6IX1OwcKB7GidZz-1">
          <mxCell style="labelBackgroundColor=#ffffff;fillColor=none;verticalAlign=top;align=left;spacingLeft=10;dashed=1;" vertex="1" parent="1">
            <mxGeometry x="-1140" y="34.12" width="440" height="515.88" as="geometry" />
          </mxCell>
        </UserObject>
        <mxCell id="7ozsi6IX1OwcKB7GidZz-49" style="edgeStyle=orthogonalEdgeStyle;rounded=1;orthogonalLoop=1;jettySize=auto;html=1;entryX=1;entryY=0.5;entryDx=0;entryDy=0;exitX=0.287;exitY=0.002;exitDx=0;exitDy=0;startArrow=classic;startFill=1;exitPerimeter=0;" edge="1" parent="1" source="7ozsi6IX1OwcKB7GidZz-24" target="7ozsi6IX1OwcKB7GidZz-48">
          <mxGeometry relative="1" as="geometry" />
        </mxCell>
        <mxCell id="7ozsi6IX1OwcKB7GidZz-67" style="edgeStyle=orthogonalEdgeStyle;rounded=1;orthogonalLoop=1;jettySize=auto;html=1;startArrow=classic;startFill=1;entryX=0;entryY=0.5;entryDx=0;entryDy=0;" edge="1" parent="1" source="7ozsi6IX1OwcKB7GidZz-1" target="7ozsi6IX1OwcKB7GidZz-68">
          <mxGeometry relative="1" as="geometry">
            <mxPoint x="-1004.3258463541666" y="830" as="targetPoint" />
            <Array as="points">
              <mxPoint x="-990" y="610" />
            </Array>
          </mxGeometry>
        </mxCell>
        <mxCell id="7ozsi6IX1OwcKB7GidZz-44" value="Metamask" style="shape=image;verticalLabelPosition=bottom;labelBackgroundColor=default;verticalAlign=top;aspect=fixed;imageAspect=0;image=https://1000logos.net/wp-content/uploads/2022/05/MetaMask-Logo.png;" vertex="1" parent="1">
          <mxGeometry x="-1310" y="40" width="86.76" height="48.89" as="geometry" />
        </mxCell>
        <mxCell id="7ozsi6IX1OwcKB7GidZz-50" style="edgeStyle=orthogonalEdgeStyle;rounded=1;orthogonalLoop=1;jettySize=auto;html=1;entryX=0.5;entryY=0;entryDx=0;entryDy=0;startArrow=classic;startFill=1;" edge="1" parent="1" source="7ozsi6IX1OwcKB7GidZz-48" target="7ozsi6IX1OwcKB7GidZz-47">
          <mxGeometry relative="1" as="geometry" />
        </mxCell>
        <mxCell id="7ozsi6IX1OwcKB7GidZz-48" value="Signer" style="rhombus;whiteSpace=wrap;html=1;" vertex="1" parent="1">
          <mxGeometry x="-1250" y="-20" width="80" height="50" as="geometry" />
        </mxCell>
        <mxCell id="7ozsi6IX1OwcKB7GidZz-66" style="edgeStyle=orthogonalEdgeStyle;rounded=1;orthogonalLoop=1;jettySize=auto;html=1;startArrow=classic;startFill=1;" edge="1" parent="1" source="7ozsi6IX1OwcKB7GidZz-52" target="7ozsi6IX1OwcKB7GidZz-63">
          <mxGeometry relative="1" as="geometry" />
        </mxCell>
        <mxCell id="7ozsi6IX1OwcKB7GidZz-57" style="edgeStyle=orthogonalEdgeStyle;rounded=1;orthogonalLoop=1;jettySize=auto;html=1;entryX=0.75;entryY=1;entryDx=0;entryDy=0;startArrow=classic;startFill=1;" edge="1" parent="1" source="7ozsi6IX1OwcKB7GidZz-54" target="7ozsi6IX1OwcKB7GidZz-55">
          <mxGeometry relative="1" as="geometry" />
        </mxCell>
        <mxCell id="7ozsi6IX1OwcKB7GidZz-58" style="edgeStyle=orthogonalEdgeStyle;rounded=1;orthogonalLoop=1;jettySize=auto;html=1;startArrow=classic;startFill=1;entryX=0.676;entryY=-0.005;entryDx=0;entryDy=0;entryPerimeter=0;" edge="1" parent="1" source="7ozsi6IX1OwcKB7GidZz-55" target="7ozsi6IX1OwcKB7GidZz-24">
          <mxGeometry relative="1" as="geometry">
            <mxPoint x="-1007" y="80" as="targetPoint" />
          </mxGeometry>
        </mxCell>
        <mxCell id="7ozsi6IX1OwcKB7GidZz-59" value="" style="group" vertex="1" connectable="0" parent="1">
          <mxGeometry x="-880" y="-140" width="155.5" height="150" as="geometry" />
        </mxCell>
        <mxCell id="7ozsi6IX1OwcKB7GidZz-55" value="IPFS" style="rounded=0;whiteSpace=wrap;html=1;labelPosition=center;verticalLabelPosition=bottom;align=center;verticalAlign=top;" vertex="1" parent="7ozsi6IX1OwcKB7GidZz-59">
          <mxGeometry width="155.5" height="150" as="geometry" />
        </mxCell>
        <mxCell id="7ozsi6IX1OwcKB7GidZz-56" value="" style="shape=image;verticalLabelPosition=bottom;labelBackgroundColor=default;verticalAlign=top;aspect=fixed;imageAspect=0;image=https://upload.wikimedia.org/wikipedia/commons/1/18/Ipfs-logo-1024-ice-text.png;" vertex="1" parent="7ozsi6IX1OwcKB7GidZz-59">
          <mxGeometry x="21.25" y="18.5" width="113" height="113" as="geometry" />
        </mxCell>
        <UserObject label="Ethereum Blockchain" id="7ozsi6IX1OwcKB7GidZz-60">
          <mxCell style="labelBackgroundColor=#ffffff;fillColor=none;verticalAlign=top;align=left;spacingLeft=10;dashed=1;" vertex="1" parent="1">
            <mxGeometry x="-680" y="34.12" width="200" height="515.88" as="geometry" />
          </mxCell>
        </UserObject>
        <mxCell id="7ozsi6IX1OwcKB7GidZz-70" value="" style="group" vertex="1" connectable="0" parent="1">
          <mxGeometry x="-890" y="570" width="220" height="80" as="geometry" />
        </mxCell>
        <mxCell id="7ozsi6IX1OwcKB7GidZz-68" value="L2 Scaling Solution" style="rounded=0;whiteSpace=wrap;html=1;labelPosition=center;verticalLabelPosition=bottom;align=center;verticalAlign=top;" vertex="1" parent="7ozsi6IX1OwcKB7GidZz-70">
          <mxGeometry width="220" height="80" as="geometry" />
        </mxCell>
        <mxCell id="7ozsi6IX1OwcKB7GidZz-69" value="" style="shape=image;verticalLabelPosition=bottom;labelBackgroundColor=default;verticalAlign=top;aspect=fixed;imageAspect=0;image=https://lever-client-logos.s3.us-west-2.amazonaws.com/7fb55e63-b76e-4d3c-b15c-ecb8fa5399db-1633069374539.png;" vertex="1" parent="7ozsi6IX1OwcKB7GidZz-70">
          <mxGeometry x="37" y="25.420000000000073" width="133" height="29.16" as="geometry" />
        </mxCell>
        <mxCell id="7ozsi6IX1OwcKB7GidZz-73" style="edgeStyle=orthogonalEdgeStyle;rounded=1;orthogonalLoop=1;jettySize=auto;html=1;startArrow=classic;startFill=1;exitX=1;exitY=0.5;exitDx=0;exitDy=0;" edge="1" parent="1" source="7ozsi6IX1OwcKB7GidZz-68" target="7ozsi6IX1OwcKB7GidZz-60">
          <mxGeometry relative="1" as="geometry" />
        </mxCell>
        <mxCell id="7ozsi6IX1OwcKB7GidZz-74" value="" style="group" vertex="1" connectable="0" parent="1">
          <mxGeometry x="-615" y="157.12" width="270" height="350" as="geometry" />
        </mxCell>
        <mxCell id="7ozsi6IX1OwcKB7GidZz-63" value="Blockchain" style="rounded=0;whiteSpace=wrap;html=1;labelPosition=center;verticalLabelPosition=bottom;align=center;verticalAlign=top;" vertex="1" parent="7ozsi6IX1OwcKB7GidZz-74">
          <mxGeometry x="-40" y="20" width="150" height="260" as="geometry" />
        </mxCell>
        <mxCell id="7ozsi6IX1OwcKB7GidZz-64" value="Ethereum" style="shape=image;verticalLabelPosition=bottom;labelBackgroundColor=default;verticalAlign=top;aspect=fixed;imageAspect=0;image=https://d33wubrfki0l68.cloudfront.net/fcd4ecd90386aeb50a235ddc4f0063cfbb8a7b66/4295e/static/bfc04ac72981166c740b189463e1f74c/40129/eth-diamond-black-white.jpg;" vertex="1" parent="7ozsi6IX1OwcKB7GidZz-74">
          <mxGeometry x="-1.0300000000000011" y="37.94" width="72.06" height="72.06" as="geometry" />
        </mxCell>
        <mxCell id="7ozsi6IX1OwcKB7GidZz-65" value="Solidity Smart Contracts" style="shape=image;verticalLabelPosition=bottom;labelBackgroundColor=default;verticalAlign=top;aspect=fixed;imageAspect=0;image=https://docs.soliditylang.org/en/v0.8.15/_static/logo.svg;" vertex="1" parent="7ozsi6IX1OwcKB7GidZz-74">
          <mxGeometry x="-5.149999999999999" y="157.94" width="80.3" height="80.3" as="geometry" />
        </mxCell>
        <mxCell id="7ozsi6IX1OwcKB7GidZz-77" value="" style="group" vertex="1" connectable="0" parent="1">
          <mxGeometry x="-1120" y="70" width="155.5" height="480" as="geometry" />
        </mxCell>
        <mxCell id="7ozsi6IX1OwcKB7GidZz-24" value="App" style="rounded=0;whiteSpace=wrap;html=1;labelPosition=center;verticalLabelPosition=bottom;align=center;verticalAlign=top;" vertex="1" parent="7ozsi6IX1OwcKB7GidZz-77">
          <mxGeometry width="155.5" height="450" as="geometry" />
        </mxCell>
        <mxCell id="7ozsi6IX1OwcKB7GidZz-39" value="NextJS" style="shape=image;verticalLabelPosition=bottom;labelBackgroundColor=default;verticalAlign=top;aspect=fixed;imageAspect=0;image=https://upload.wikimedia.org/wikipedia/commons/thumb/8/8e/Nextjs-logo.svg/800px-Nextjs-logo.svg.png;" vertex="1" parent="7ozsi6IX1OwcKB7GidZz-77">
          <mxGeometry x="32.75" y="20.000000000000156" width="90" height="53.83" as="geometry" />
        </mxCell>
        <mxCell id="7ozsi6IX1OwcKB7GidZz-40" value="ReactJS" style="shape=image;verticalLabelPosition=bottom;labelBackgroundColor=default;verticalAlign=top;aspect=fixed;imageAspect=0;image=https://upload.wikimedia.org/wikipedia/commons/thumb/a/a7/React-icon.svg/2300px-React-icon.svg.png;" vertex="1" parent="7ozsi6IX1OwcKB7GidZz-77">
          <mxGeometry x="37.75" y="119.99999999999997" width="80" height="69.54" as="geometry" />
        </mxCell>
        <mxCell id="7ozsi6IX1OwcKB7GidZz-41" value="Material UI" style="shape=image;verticalLabelPosition=bottom;labelBackgroundColor=default;verticalAlign=top;aspect=fixed;imageAspect=0;image=https://seeklogo.com/images/M/material-ui-logo-5BDCB9BA8F-seeklogo.com.png;" vertex="1" parent="7ozsi6IX1OwcKB7GidZz-77">
          <mxGeometry x="42.7600000000001" y="230" width="70.86" height="56.22" as="geometry" />
        </mxCell>
        <mxCell id="7ozsi6IX1OwcKB7GidZz-42" value="Typescript" style="shape=image;verticalLabelPosition=bottom;labelBackgroundColor=default;verticalAlign=top;aspect=fixed;imageAspect=0;image=https://upload.wikimedia.org/wikipedia/commons/thumb/4/4c/Typescript_logo_2020.svg/1200px-Typescript_logo_2020.svg.png;" vertex="1" parent="7ozsi6IX1OwcKB7GidZz-77">
          <mxGeometry x="41.86999999999989" y="330" width="71.75" height="71.75" as="geometry" />
        </mxCell>
        <mxCell id="7ozsi6IX1OwcKB7GidZz-81" style="edgeStyle=orthogonalEdgeStyle;rounded=1;orthogonalLoop=1;jettySize=auto;html=1;exitX=0.5;exitY=1;exitDx=0;exitDy=0;startArrow=classic;startFill=1;" edge="1" parent="7ozsi6IX1OwcKB7GidZz-77" source="7ozsi6IX1OwcKB7GidZz-40" target="7ozsi6IX1OwcKB7GidZz-40">
          <mxGeometry relative="1" as="geometry" />
        </mxCell>
        <mxCell id="7ozsi6IX1OwcKB7GidZz-78" style="edgeStyle=orthogonalEdgeStyle;rounded=1;orthogonalLoop=1;jettySize=auto;html=1;entryX=-0.003;entryY=0.448;entryDx=0;entryDy=0;entryPerimeter=0;startArrow=classic;startFill=1;" edge="1" parent="1" source="7ozsi6IX1OwcKB7GidZz-24" target="7ozsi6IX1OwcKB7GidZz-52">
          <mxGeometry relative="1" as="geometry" />
        </mxCell>
        <mxCell id="7ozsi6IX1OwcKB7GidZz-79" value="JSON RPC" style="edgeLabel;html=1;align=center;verticalAlign=middle;resizable=0;points=[];" vertex="1" connectable="0" parent="7ozsi6IX1OwcKB7GidZz-78">
          <mxGeometry x="0.2726" relative="1" as="geometry">
            <mxPoint x="-11" y="-2" as="offset" />
          </mxGeometry>
        </mxCell>
        <mxCell id="7ozsi6IX1OwcKB7GidZz-83" value="" style="group" vertex="1" connectable="0" parent="1">
          <mxGeometry x="-880" y="194.12" width="155.5" height="225.88" as="geometry" />
        </mxCell>
        <mxCell id="7ozsi6IX1OwcKB7GidZz-52" value="Provider" style="rounded=0;whiteSpace=wrap;html=1;labelPosition=center;verticalLabelPosition=bottom;align=center;verticalAlign=top;" vertex="1" parent="7ozsi6IX1OwcKB7GidZz-83">
          <mxGeometry width="155.5" height="225.88" as="geometry" />
        </mxCell>
        <mxCell id="7ozsi6IX1OwcKB7GidZz-53" value="Metamask" style="shape=image;verticalLabelPosition=bottom;labelBackgroundColor=default;verticalAlign=top;aspect=fixed;imageAspect=0;image=https://1000logos.net/wp-content/uploads/2022/05/MetaMask-Logo.png;" vertex="1" parent="7ozsi6IX1OwcKB7GidZz-83">
          <mxGeometry x="34.36999999999989" y="125.88" width="86.76" height="48.89" as="geometry" />
        </mxCell>
        <mxCell id="7ozsi6IX1OwcKB7GidZz-54" value="Infura" style="shape=image;verticalLabelPosition=bottom;labelBackgroundColor=default;verticalAlign=top;aspect=fixed;imageAspect=0;image=https://logovectorseek.com/wp-content/uploads/2019/11/infura-inc-logo-vector.png;" vertex="1" parent="7ozsi6IX1OwcKB7GidZz-83">
          <mxGeometry x="27.75" y="32.87999999999997" width="100" height="55.58" as="geometry" />
        </mxCell>
        <mxCell id="7ozsi6IX1OwcKB7GidZz-84" value="" style="group" vertex="1" connectable="0" parent="1">
          <mxGeometry x="-1330" y="180" width="135.5" height="124.44" as="geometry" />
        </mxCell>
        <mxCell id="7ozsi6IX1OwcKB7GidZz-47" value="" style="rounded=0;whiteSpace=wrap;html=1;" vertex="1" parent="7ozsi6IX1OwcKB7GidZz-84">
          <mxGeometry width="135.5" height="124.44" as="geometry" />
        </mxCell>
        <mxCell id="7ozsi6IX1OwcKB7GidZz-46" value="Browser" style="shape=image;verticalLabelPosition=bottom;labelBackgroundColor=default;verticalAlign=top;aspect=fixed;imageAspect=0;image=https://uxwing.com/wp-content/themes/uxwing/download/internet-network-technology/internet-web-browser-icon.png;" vertex="1" parent="7ozsi6IX1OwcKB7GidZz-84">
          <mxGeometry x="31.799999999999955" y="28.379999999999995" width="71.9" height="67.69" as="geometry" />
        </mxCell>
        <mxCell id="7ozsi6IX1OwcKB7GidZz-87" value="" style="group;labelPosition=center;verticalLabelPosition=bottom;align=center;verticalAlign=top;" vertex="1" connectable="0" parent="1">
          <mxGeometry x="-870" y="690" width="180" height="100" as="geometry" />
        </mxCell>
        <mxCell id="7ozsi6IX1OwcKB7GidZz-88" value="" style="rounded=0;whiteSpace=wrap;html=1;" vertex="1" parent="7ozsi6IX1OwcKB7GidZz-87">
          <mxGeometry width="180" height="100" as="geometry" />
        </mxCell>
        <mxCell id="7ozsi6IX1OwcKB7GidZz-90" value="Graph Protocol (In Future)" style="shape=image;verticalLabelPosition=bottom;labelBackgroundColor=default;verticalAlign=top;aspect=fixed;imageAspect=0;image=https://miro.medium.com/max/955/1*UUtSs0Hfsy3M0GCw9k4UCA.jpeg;" vertex="1" parent="7ozsi6IX1OwcKB7GidZz-87">
          <mxGeometry x="36.27" y="16.07" width="107.45" height="53.93" as="geometry" />
        </mxCell>
        <mxCell id="7ozsi6IX1OwcKB7GidZz-91" style="edgeStyle=orthogonalEdgeStyle;rounded=1;orthogonalLoop=1;jettySize=auto;html=1;exitX=1;exitY=0.5;exitDx=0;exitDy=0;startArrow=classic;startFill=1;entryX=0.909;entryY=1.002;entryDx=0;entryDy=0;entryPerimeter=0;" edge="1" parent="1" source="7ozsi6IX1OwcKB7GidZz-88" target="7ozsi6IX1OwcKB7GidZz-60">
          <mxGeometry relative="1" as="geometry">
            <mxPoint x="-830" y="910" as="targetPoint" />
          </mxGeometry>
        </mxCell>
      </root>
    </mxGraphModel>
  </diagram>
</mxfile>
